<?xml version="1.0" encoding="UTF-8" standalone="no"?>
<!DOCTYPE svg PUBLIC "-//W3C//DTD SVG 1.1//EN" "http://www.w3.org/Graphics/SVG/1.1/DTD/svg11.dtd">
<svg width="8in" height="1.75in" viewBox="0 0 768 168" version="1.1" xmlns="http://www.w3.org/2000/svg" xmlns:xlink="http://www.w3.org/1999/xlink" xml:space="preserve" xmlns:serif="http://www.serif.com/" style="fill-rule:evenodd;clip-rule:evenodd;stroke-linejoin:round;stroke-miterlimit:1.41421;">
    <g transform="matrix(1.23535,0,0,1.23535,-177.492,-4.94504)">
        <g id="_1-in-clasp" serif:id="1 in clasp" transform="matrix(1.00168,0,0,1,95.1521,-72)">
            <path d="M520.302,120.395C520.532,113.701 524.369,102.867 541.103,88.878C541.103,88.878 551.333,82.567 552.205,78.214C552.205,78.214 568.745,85.176 561.564,103.247C561.564,103.247 559.17,108.252 565.266,102.156C565.266,102.156 567.659,94.539 569.182,92.579C570.702,90.621 576.364,81.478 580.935,79.519C585.505,77.563 598.563,74.078 617.064,77.343C617.064,77.343 616.412,98.019 614.46,103.904C612.494,109.777 607.057,116.092 604.447,118.702C601.834,121.315 601.397,125.232 604.009,124.794C606.623,124.363 615.326,111.303 618.371,110.432C621.423,109.563 630.782,108.47 631.869,109.557C632.96,110.648 631.87,119.138 635.786,118.702C639.702,118.264 641.661,112.386 650.587,117.393C659.508,122.4 669.088,137.201 669.088,137.201C669.088,137.201 666.912,142.429 666.257,144.819C665.606,147.213 658.426,150.046 657.555,153.96C656.685,157.882 655.813,161.362 651.238,159.839C646.67,158.314 644.711,158.966 642.971,161.583C641.228,164.194 644.711,168.548 638.399,170.502C638.399,170.502 634.699,174.642 622.724,174.42C622.724,174.42 604.659,159.402 602.048,162.012C599.437,164.624 598.565,165.495 602.265,168.326C605.968,171.155 611.19,167.238 617.724,184.216C623.07,198.124 624.621,199.175 625.007,199.1C623.834,199.987 613.674,207.568 608.143,208.595C602.267,209.683 598.131,215.126 585.943,209.464C585.943,209.464 585.211,208.836 581.372,210.116C576.798,211.639 573.315,211.203 567.226,208.159C567.226,208.159 556.339,208.157 558.518,189.007C558.518,189.007 556.558,183.129 553.946,193.579C553.946,193.579 550.244,206.853 545.236,206.198C540.232,205.548 524.56,190.309 525.649,181.821C525.649,181.821 527.826,180.084 523.693,179.429C521.666,179.109 520.063,174.613 522.048,168.395" style="fill:none;stroke:black;stroke-width:0.81px;"/>
        </g>
        <g transform="matrix(1.158,1.158,-1.16207,1.16207,526.853,-185.393)">
            <path d="M139.512,62.033C141.636,64.391 143.819,64.606 143.819,64.606C145.325,66.108 149.456,65.36 154.34,64.043C155.671,63.685 156.903,63.403 157.729,63.173" style="fill:none;stroke:rgb(242,13,13);stroke-width:0.49px;"/>
        </g>
        <g transform="matrix(1.158,1.158,-1.16207,1.16207,526.853,-185.393)">
            <path d="M153.846,71.644L146.412,78.304C142.132,82.555 137.521,88.465 137.521,88.465C137.734,86.744 135.179,82.446 135.179,82.446C136.477,82.882 144.984,75.654 149.205,71.859C149.6,71.504 150.439,70.596 150.742,70.328C150.888,70.579 151.144,70.729 151.346,70.929C152.06,71.642 152.9,71.645 153.846,71.644Z" style="fill:none;stroke:rgb(13,40,242);stroke-width:0.49px;"/>
        </g>
        <g transform="matrix(1.158,1.158,-1.16207,1.16207,526.853,-185.393)">
            <path d="M160.315,65.447C158.53,73.184 159.31,78.657 161.04,82.016" style="fill:none;stroke:rgb(242,13,13);stroke-width:0.49px;"/>
        </g>
        <g transform="matrix(1,0,0,1,190.119,-72)">
            <path d="M439.176,143.102C439.157,143.114 439.249,143.097 439.427,143.106C443.358,143.304 447.76,142.39 447.778,142.376C447.778,142.376 452.628,139.532 452.398,133.937C452.173,128.434 445.829,120.14 447.778,112.804C450.237,103.546 457.182,101.731 459.361,95.899C461.497,90.18 459.737,88.314 459.737,88.314C459.737,88.314 461.579,90.51 459.737,95.78C457.078,103.388 450.745,103.948 448.605,113.521C447.494,118.491 451.139,125.277 452.956,130.305C453.019,130.479 453.079,130.651 453.138,130.821C453.196,130.992 453.857,128.355 455.03,126.027C456.518,123.075 458.583,120.253 458.583,120.253C458.583,120.253 456.804,123.769 455.46,127.11C454.316,129.955 453.572,132.68 453.613,132.928C453.669,133.276 453.705,133.612 453.718,133.937C453.963,139.815 449.488,142.357 449.488,142.357L475.54,142.357C475.54,142.357 480.424,139.496 488.052,129.076C497.068,116.761 487.336,104.498 498.185,94.086C506.934,85.688 512.092,83.757 512.092,83.757C512.092,83.757 507.316,86.173 498.83,94.205C490.633,101.962 493.947,110.736 492.905,119.743C492.879,119.971 493.938,119.068 495.361,117.656C496.576,116.451 498.185,114.717 498.185,114.717C498.185,114.717 497.429,116.066 496.196,117.656C494.647,119.655 492.544,122.008 492.494,122.236C491.953,124.706 490.979,127.187 489.248,129.665C483.325,138.143 477.662,142.224 477.662,142.224C477.662,142.224 479.335,142.325 480.459,142.357C488.151,142.578 499.824,141.887 508.254,140.985C510.506,140.743 512.035,140.496 514.422,140.262C514.733,140.232 518.473,136.256 521.173,130.821C522.689,127.771 522.756,125.68 524.409,122.974C525.668,120.911 527.213,118.958 528.964,117.656C531.865,115.499 531.692,116.446 531.692,116.446C531.692,116.446 529.529,117.926 528.674,118.659C526.785,120.277 525.235,122.794 524.409,124.487C523.149,127.069 523.706,128.211 522.449,130.821C519.942,136.025 516.147,140.262 516.147,140.262C516.147,140.262 528.82,138.35 533.547,137.859C534.744,137.735 539.591,137.732 539.591,137.732C539.591,137.732 541.273,135.452 542.352,134.632C543.432,133.812 546.07,132.811 546.07,132.811C546.07,132.811 543.158,134.733 542.352,135.575C541.766,136.187 541.235,137.859 541.235,137.859C541.235,137.859 549.566,137.948 551.477,137.859C561.667,137.389 563.844,137.732 563.844,137.732C563.844,137.732 559.274,138.624 550.656,139.539C550.525,139.553 551.154,140.161 551.673,140.471C552.408,140.91 554.142,140.985 554.142,140.985C554.142,140.985 552.76,141.368 551.477,140.985C550.586,140.719 549.745,139.637 549.588,139.654C544.992,140.13 538.644,139.561 533.547,140.262C530.65,140.661 507.746,144.507 507.746,144.507C507.746,144.507 518.708,148.07 522.449,150.732C526.597,153.682 534.444,162.102 534.444,162.102C534.444,162.102 525.837,153.582 521.028,150.732C516.438,148.011 505.591,144.998 505.591,144.998C505.591,144.998 495.94,146.537 484.523,146.797C480.239,146.895 472.379,146.797 472.379,146.797C472.379,146.797 477.159,149.602 482.382,156.83C482.46,156.938 484.773,158.418 487.315,159.506C490.481,160.861 494.003,161.867 494.003,161.867C494.003,161.867 490.415,161.191 487.315,160.315C485.158,159.706 483.128,158.738 483.163,158.925C484,163.344 482.617,171.476 484.523,174.584C489.884,183.325 488.735,189.995 494.502,192.751C498.147,194.492 504.778,193.671 510.347,194.656C516.177,195.686 521.028,197.633 521.028,197.633C521.028,197.633 516.113,195.926 510.24,194.891C504.546,193.887 497.816,194.726 494.003,193.304C492.092,192.592 490.435,190.181 488.788,187.12C487.341,184.43 486.496,181.261 485.302,178.679C484.762,177.51 483.787,175.85 483.27,175.049C483.056,174.718 482.484,177.366 481.117,179.93C479.493,182.977 477.028,186.019 476.662,185.388C476.466,185.049 479.054,181.529 480.459,178.679C481.206,177.163 482.232,173.452 482.18,173.189C481.244,168.473 482.743,159.894 480.648,157.217C474.737,149.667 471.223,147.325 469.423,147.192L449.488,148.362C449.488,148.362 455.927,152.761 456.944,156.83C456.962,156.904 457.213,157.445 457.592,158.194C457.868,158.739 458.989,160.566 459.361,161.229C460.319,162.938 462.25,168.084 462.25,168.084C462.25,168.084 459.643,162.606 458.583,161.229C457.866,160.297 456.668,158.7 456.661,158.804C456.095,167.499 447.345,167.022 447.268,180.308C447.215,189.35 450.051,196.91 450.051,196.91C450.051,196.91 446.816,189.37 446.311,180.308C445.478,165.361 456.008,166.553 455.03,157.217C454.581,152.932 446.739,148.362 446.739,148.362L436.69,148.362C436.69,148.362 438.355,147.198 438.904,146C439.411,144.896 439.176,143.102 439.176,143.102Z" style="fill:none;stroke:rgb(13,40,242);stroke-width:0.81px;stroke-linecap:round;stroke-miterlimit:1.5;"/>
        </g>
    </g>
    <g id="_1-in-clasp1" serif:id="1 in clasp" transform="matrix(1.00168,0,0,1,95.1521,-60)">
        <path d="M490.343,173.827C490.343,173.827 361.161,217.365 270.204,216.035C178.896,214.701 65.267,168.238 17.975,168.326C4.169,168.352 -21.03,188.958 -32.207,189.007C-47.281,189.072 -66.571,168.279 -75.072,168.395C-93.01,168.639 -93.252,168.755 -93.091,156.757C-92.997,149.747 -93.097,141.39 -93.079,137.201C-93.008,120.104 -93.062,120.127 -75.072,120.395C-66.745,120.519 -46.887,97.59 -32.207,97.661C-21.216,97.714 7.528,120.796 17.975,120.806C65.201,120.853 179.25,72.495 270.204,71.972C360.835,71.451 487.927,114.489 487.927,114.489" style="fill:none;stroke:black;stroke-width:1px;"/>
    </g>
    <g transform="matrix(1.64031,0,0,1.78285,-674.438,-170.932)">
        <ellipse cx="420.799" cy="142.991" rx="3.658" ry="3.365" style="fill:none;stroke:black;stroke-width:0.58px;stroke-linecap:round;stroke-miterlimit:1.5;"/>
    </g>
    <g transform="matrix(1.64031,0,0,1.78285,-577.126,-170.932)">
        <ellipse cx="420.799" cy="142.991" rx="3.658" ry="3.365" style="fill:none;stroke:black;stroke-width:0.58px;stroke-linecap:round;stroke-miterlimit:1.5;"/>
    </g>
    <g transform="matrix(1.64031,0,0,1.78285,-96.1901,-170.932)">
        <ellipse cx="420.799" cy="142.991" rx="3.658" ry="3.365" style="fill:none;stroke:black;stroke-width:0.58px;stroke-linecap:round;stroke-miterlimit:1.5;"/>
    </g>
</svg>
